<svg
   xmlns="http://www.w3.org/2000/svg"
   viewBox="0 0 52.916668 21.166666"
   height="80"
   width="200">
  <g
     transform="translate(-11.1271,-4.3697162)"
     id="layer1">
    <g
       id="g834">
      <path
         d="m 15.349501,20.832657 c -1.7337,0 -2.775319,-0.405954 -3.362541,-1.217904 -0.573242,-0.811942 -0.85986,-2.267851 -0.85986,-4.367722 0,-1.511903 0.132824,-2.659835 0.398473,-3.443782 0.265643,-0.797949 0.664116,-1.336914 1.195413,-1.616896 0.545277,-0.2939833 1.342221,-0.4409726 2.390831,-0.4409726 1.048609,0 1.838565,0.1469893 2.369856,0.4409726 0.545277,0.29398 0.94375,0.839944 1.195414,1.637896 0.251669,0.797947 0.377503,1.931874 0.377503,3.401786 v 0.25198 c 0,0.08399 -0.167779,0.160992 -0.503332,0.230987 -0.321574,0.07 -0.713056,0.105001 -1.174444,0.105001 h -3.229716 c 0.02796,1.637897 0.146798,2.568835 0.356522,2.792822 0.125833,0.11199 0.328569,0.167991 0.608197,0.167991 1.83157,0 3.082913,-0.091 3.754025,-0.272983 0.02796,-0.01399 0.04891,-0.02102 0.06292,-0.02102 0.09787,-0.02799 0.174768,0.02799 0.230693,0.167989 0.06991,0.13999 0.104856,0.468974 0.104856,0.98694 0,0.517965 -0.111848,0.80495 -0.335551,0.860946 -0.573243,0.223985 -1.845556,0.335977 -3.579255,0.335977 z m -1.202403,-8.336455 v 1.637902 h 2.118188 c -0.05592,-1.623899 -0.216714,-2.435849 -0.482357,-2.435849 -0.475373,0 -0.86685,0.07 -1.174444,0.209989 -0.307593,0.139991 -0.461387,0.335977 -0.461387,0.587958 z"
         style="font-style:normal;font-variant:normal;font-weight:normal;font-stretch:normal;font-size:25.39999962px;line-height:1.25;font-family:'Chau Philomene One';-inkscape-font-specification:'Chau Philomene One';letter-spacing:0px;word-spacing:0px;fill:#333333;fill-opacity:1;stroke:none;stroke-width:0.21859822"
         id="path4739" />
      <path
         d="m 25.208682,9.7453804 q 1.55194,0 2.264996,1.2809166 0.734026,1.259921 0.734026,4.409721 0,3.149803 -0.922775,4.283731 -0.901805,1.112929 -3.439441,1.112929 h -1.006663 v 4.367736 q 0,0.126017 -0.02099,0.167984 -0.104856,0.167985 -0.79694,0.167985 -0.692087,0 -1.342227,-0.10495 Q 20.02853,25.326482 20.02853,25.200452 V 10.081356 q 0,-0.3359756 0.985696,-0.3359756 0.985688,0 1.174443,0.3779736 l 0.398471,0.797952 q 1.761666,-1.1759256 2.621527,-1.1759256 z m -1.363194,9.0714266 q 0.775972,0 1.04861,-0.629961 0.293614,-0.650958 0.293614,-2.162866 0,-1.532904 -0.02099,-2.01587 0,-0.482971 -0.021,-1.112932 -0.04194,-1.133929 -0.293614,-1.133929 -0.754995,0 -2.013327,0.755954 v 6.299604 z"
         style="font-style:normal;font-variant:normal;font-weight:normal;font-stretch:normal;font-size:25.39999962px;line-height:1.25;font-family:'Chau Philomene One';-inkscape-font-specification:'Chau Philomene One';letter-spacing:0px;word-spacing:0px;fill:#1a1a1a;fill-opacity:1;stroke:none;stroke-width:0.21859822"
         id="path4741" />
      <path
         d="M 28.973166,20.4967 V 10.081356 q 0,-0.3359756 0.755,-0.3359756 0.755002,0 1.426107,0.1049887 0.671113,0.1049886 0.671113,0.2309839 v 10.415344 q 0,0.125992 -0.021,0.167992 -0.104869,0.167986 -0.796947,0.167986 -0.69208,0 -1.36319,-0.104989 Q 28.973135,20.622685 28.973135,20.4967 Z M 30.273443,7.3935273 q -1.509995,0 -1.509995,-1.511903 0,-1.5119081 1.509995,-1.5119081 1.509997,0 1.509997,1.5119081 0,1.511903 -1.509997,1.511903 z"
         style="font-style:normal;font-variant:normal;font-weight:normal;font-stretch:normal;font-size:25.39999962px;line-height:1.25;font-family:'Chau Philomene One';-inkscape-font-specification:'Chau Philomene One';letter-spacing:0px;word-spacing:0px;fill:#1a1a1a;fill-opacity:1;stroke:none;stroke-width:0.21859822"
         id="path4743" />
      <path
         d="m 42.347622,20.580696 q 0,0.251982 -0.775971,0.251982 -0.77597,0 -1.530969,-0.105002 -0.734027,-0.104988 -0.817915,-0.230985 -0.02098,0 -0.02098,-0.02102 l -1.67777,-3.002809 -1.677777,3.002809 v 0.02102 q -0.04194,0.084 -0.06292,0.104989 -0.02099,0.02101 -0.08388,0.08398 -0.04194,0.063 -0.104869,0.084 -0.230693,0.063 -0.545277,0.063 -1.614855,0 -2.244021,-0.230986 -0.125832,-0.063 -0.104856,-0.105001 l 3.208742,-5.480654 -2.789299,-4.934692 q -0.18875,-0.3359748 0.838883,-0.3359748 0.650144,0 1.279309,0.1049886 0.629167,0.1049886 0.713051,0.2309862 v 0.02102 l 1.489026,2.792821 1.258328,-2.771826 q 0.18875,-0.3779743 0.85986,-0.3779743 0.67111,0 1.300275,0.1049887 0.629167,0.1050014 0.587221,0.2309856 l -2.285967,4.934689 3.1668,5.480656 q 0.02098,0.04199 0.02098,0.08399 z"
         style="font-style:normal;font-variant:normal;font-weight:normal;font-stretch:normal;font-size:25.39999962px;line-height:1.25;font-family:'Chau Philomene One';-inkscape-font-specification:'Chau Philomene One';letter-spacing:0px;word-spacing:0px;fill:#e23700;fill-opacity:1;stroke:none;stroke-width:0.21859822"
         id="path4745" />
      <path
         d="M 43.429362,20.4967 V 10.081356 q 0,-0.3359756 0.754999,-0.3359756 0.755,0 1.426109,0.1049887 0.671112,0.1049886 0.671112,0.2309839 v 10.415344 q 0,0.125992 -0.02098,0.167992 -0.104869,0.167986 -0.796945,0.167986 -0.692082,0 -1.363192,-0.104989 Q 43.429358,20.622685 43.429358,20.4967 Z M 44.729637,7.3935273 q -1.509998,0 -1.509998,-1.511903 0,-1.5119081 1.509998,-1.5119081 1.509999,0 1.509999,1.5119081 0,1.511903 -1.509999,1.511903 z"
         style="font-style:normal;font-variant:normal;font-weight:normal;font-stretch:normal;font-size:25.39999962px;line-height:1.25;font-family:'Chau Philomene One';-inkscape-font-specification:'Chau Philomene One';letter-spacing:0px;word-spacing:0px;fill:#1a1a1a;fill-opacity:1;stroke:none;stroke-width:0.21859822"
         id="path4747" />
      <path
         d="m 52.174764,19.845738 q -1.090554,0.98694 -1.950413,0.98694 -0.83889,0 -1.363193,-0.125992 -0.524305,-0.105001 -0.943749,-0.482965 -0.419445,-0.398977 -0.587224,-1.133928 -0.167775,-0.734953 -0.167775,-1.952878 0,-1.700894 1.656803,-2.330855 l 2.999026,-0.776952 q -0.02098,-1.364913 -0.272641,-1.763888 -0.251666,-0.39897 -1.090553,-0.39897 -0.838887,0 -1.447082,0.272982 l -0.734027,0.293978 h -0.02098 q -0.18875,0.105001 -0.335555,-0.16799 -0.377501,-0.797946 -0.377501,-1.238921 0,-0.461969 0.06293,-0.503968 0.08388,-0.063 0.08388,-0.08399 1.04861,-0.6929543 2.705414,-0.6929543 1.677774,0 2.579579,0.4409723 0.901806,0.440969 1.300276,1.616896 0.419444,1.154929 0.419444,3.443784 l -0.04194,5.249669 q 0,0.125991 -0.04195,0.16799 -0.08388,0.167987 -0.796945,0.167987 -1.300276,0 -1.300276,-0.335977 z m -2.68444,-2.666826 q 0,1.511901 0.880832,1.595897 0.608193,0 0.880832,-0.20999 0.587222,-0.398976 0.587222,-2.981805 -1.090555,0.146988 -1.719722,0.608958 -0.629164,0.440973 -0.629164,0.98694 z"
         style="font-style:normal;font-variant:normal;font-weight:normal;font-stretch:normal;font-size:25.39999962px;line-height:1.25;font-family:'Chau Philomene One';-inkscape-font-specification:'Chau Philomene One';letter-spacing:0px;word-spacing:0px;fill:#1a1a1a;fill-opacity:1;stroke:none;stroke-width:0.21859822"
         id="path4749" />
      <path
         d="m 61.044745,9.7453804 q 1.551942,0 2.264996,0.9659366 0.734027,0.965938 0.734027,3.401784 V 20.4967 q 0,0.125991 -0.02098,0.167992 -0.104856,0.167986 -0.817916,0.167986 -0.692082,0 -1.426107,-0.105002 -0.734027,-0.104988 -0.734027,-0.230985 l -0.02098,-6.383592 q 0,-2.351852 -0.335555,-2.351852 -0.755,0 -2.01333,0.755954 v 7.979496 q 0,0.125992 -0.02098,0.167992 -0.104856,0.167986 -0.817916,0.167986 -0.692082,0 -1.447081,-0.105001 Q 55.65487,20.622685 55.65487,20.496688 V 10.081344 q 0,-0.3359764 0.838887,-0.3359764 1.321249,0 1.509999,0.3359764 0,0.04199 0.02098,0.04199 l 0.398472,0.797952 q 1.761667,-1.175915 2.621527,-1.175915 z"
         style="font-style:normal;font-variant:normal;font-weight:normal;font-stretch:normal;font-size:25.39999962px;line-height:1.25;font-family:'Chau Philomene One';-inkscape-font-specification:'Chau Philomene One';letter-spacing:0px;word-spacing:0px;fill:#333333;fill-opacity:1;stroke:none;stroke-width:0.21859822"
         id="path4751" />
    </g>
  </g>
</svg>
